# xmcd
#
# Track frame offsets:
#	150
#	17454
#	30229
#	42663
#	51499
#	66162
#	77410
#	89934
#	100038
#	114020
#	125075
#	141209
#	155783
#	171111
#	191508
#	204651
#	218513
#	233828
#	248853
#	262590
#	273518
#	287853
#
# Disc length: 4018
#
# Revision: 3
# Processed by: cddbd v1.5.1PL0 Copyright (c) Steve Scherf et al.
# Submitted via: audiograbber 1.80
# Normalized: r1:DSETVAR1,TDELIM( - );r2:TSWAP
#
DISCID=380fb016
DTITLE=Various Artist - 50 Years Of Country Music Vol 4 - Here's To Hank
DYEAR=1900
DGENRE=
TTITLE0=George Jones - These Old Eyes Have Seen It All
TTITLE1=George Jones - Brother To The Blues
TTITLE2=Stonewall Jackson - Smoke Along The Track
TTITLE3=Stonewall Jackson - Here's To Hank
TTITLE4=Stonewall Jackson - I'm So Lonesome I Could Cry
TTITLE5=Homer Joy - Streets Of Bakersfield
TTITLE6=Homer Joy - Make Me Glad I Came
TTITLE7=Jericho Jones - Can A Young Love
TTITLE8=Atlanta James - I'm The Only Hell My Mama Ever Raised
TTITLE9=Waylon Jennings - Anita, You're Dreaming
TTITLE10=Waylon Jennings - Bob Wills Is Still The King
TTITLE11=Alan Jackson - Working Class Hero
TTITLE12=Frank Jansen - Lonely Lady
TTITLE13=Red Jenkins - Sweet Texas Rose
TTITLE14=Jerry Jaramillo - I'd Just Be Fool Enough
TTITLE15=Jerry Jaramillo - I Don't Deserve Your Love
TTITLE16=Sammy Kershaw - Real Old-Fashioned Broken Heart
TTITLE17=The Kendalls - If You Let Him Drive You Crazy (He Will)
TTITLE18=The Kendalls - Once More
TTITLE19=Merle Kilgore - The Picture Of St.Helene
TTITLE20=Wayne Kemp - Waiting For The Tables To Turn
TTITLE21=Wayne Kemp - I Can't Wait To Dream That Dream Again
EXTD=
EXTT0=
EXTT1=
EXTT2=
EXTT3=
EXTT4=
EXTT5=
EXTT6=
EXTT7=
EXTT8=
EXTT9=
EXTT10=
EXTT11=
EXTT12=
EXTT13=
EXTT14=
EXTT15=
EXTT16=
EXTT17=
EXTT18=
EXTT19=
EXTT20=
EXTT21=
PLAYORDER=
